<?xml version="1.0" encoding="utf-8" ?>
<svg xmlns="http://www.w3.org/2000/svg" xmlns:xlink="http://www.w3.org/1999/xlink" width="1024" height="1024">
	<path transform="scale(2 2)" d="M244.432 68.0898C252.996 68.9599 247.253 79.2517 245.771 83.9963C238.882 106.066 232.543 129.46 232.516 152.73C253.261 117.078 312.316 95.3515 350.795 105.994C362.092 109.119 380.209 114.628 361.158 123.007C322.715 139.916 291.114 167.828 275.715 207.536C278.431 209.69 280.822 211.922 283.135 214.5C324.256 183.911 382.263 184.097 422.3 216.928C430.634 223.762 442.805 236.758 445.246 247.177C443.219 254.921 434.688 250.074 429.695 248.301L414.856 243.039C396.496 236.715 377.431 233.102 358.013 232.894C396.305 249.951 414.866 319.477 404.326 356.926C396.676 384.108 391.678 361.07 385.116 348.735C366.427 313.609 338.817 290.404 302.382 276.111C300.61 278.229 298.911 280.367 297.065 282.425C335.119 328.364 326.786 409.095 274.297 440.962C272.314 442.247 270.48 443.218 268.194 443.854C260.506 441.787 263.637 435.64 265.31 430.243C272.046 408.51 277.945 385.598 277.754 362.744C251.246 398.794 193.641 416.486 151.765 402.792C131.893 396.294 147.509 391.068 156.421 386.37C193.456 366.848 220.996 342.529 236.28 303.165C232.859 301.702 230.549 299.745 227.897 297.153C192.826 323.302 149.419 327.073 109.437 308.096C93.6934 300.623 72.5989 282.892 66.4916 265.688C67.0595 262.426 67.8311 261.257 71.2155 260.396C77.4346 261.831 83.4781 264.235 89.6059 266.032C109 271.722 133.695 278.632 154.019 279.739C117.309 253.616 97.8232 203.861 106.724 159.91C111.476 136.442 115.156 139.19 123.864 156.492C141.178 190.89 171.771 223.643 208.858 235.861C210.708 232.903 212.931 230.172 215.08 227.428C178.737 179.661 185.784 109.298 235.143 73.0378C237.873 71.032 241.014 68.6227 244.432 68.0898ZM227.897 228.713C214.487 241.246 206.587 259.522 221.284 274.503C198.115 290.05 189.045 291.374 163.304 284.359C162.837 286.296 162.61 288.252 162.422 290.234C158.553 289.336 154.557 288.998 150.621 288.507C131.15 286.079 99.8538 279.784 80.9686 272.623C110.79 313.741 177.337 323.056 217.741 293.586C221.661 290.726 225.036 287.174 228.937 284.359C231.71 286.743 234.104 289.512 236.862 291.898C248.374 301.856 266.332 301.709 276.812 290.234C285.9 304.119 290.633 321.965 287.212 338.435C285.692 345.752 285.872 347.152 286.57 354.632C288.3 373.163 282.16 411.667 274.297 429.987C283.352 426.94 296.086 407.91 300.327 399.35C319.437 360.779 315.113 312.654 284.472 281.544C298.762 271.163 304.867 248.964 290.459 235.861C298.906 229.783 306.848 228.284 315.936 224.583C345.377 212.186 381.587 213.304 410.834 225.204C413.21 226.171 422.421 230.819 423.908 230.938C399.527 203.719 355.537 194.729 321.365 204.958C309.316 208.564 290.837 217.372 283.135 227.428C280.559 225.277 278.291 222.801 275.809 220.547C263.065 208.976 246.422 210.157 234.386 222.048C228.979 211.726 228.398 205.01 224.803 195.268C223.078 192.482 221.798 189.424 220.719 186.338C211.039 158.664 211.743 134.103 222.922 107.381C226.132 99.707 231.599 91.8435 234.386 85.2747C230.083 88.1467 226.605 92.0782 223.404 96.1042C192.52 134.951 193.534 192.622 227.897 228.713ZM237.409 207.536C239.233 206.367 241.042 205.125 242.991 204.173C251.948 193.406 252.048 191.676 256.002 177.754C266.992 139.063 302.455 119.389 340.519 116.163C344.164 115.854 347.701 116.137 351.324 116.054L351.558 116.047C334.551 108.145 305.985 113.909 288.994 120.143C267.611 127.989 246.736 142.03 236.968 163.268C228.63 181.395 231.107 188.333 237.409 207.536ZM260.426 308.738C257.509 361.028 227.382 386.413 178.612 396.048C175.182 396.726 171.554 396.652 168.183 397.421C205.284 403.478 257.545 385.06 274.195 349.506C281.473 333.964 279.995 319.659 274.297 303.998C268.928 306.011 266.503 307.68 260.426 308.738ZM115.013 166.171C110.699 196.161 119.424 227.936 137.503 252.146C153.053 272.969 183.712 289.216 207.542 271.601C206.581 269.106 205.733 266.639 205.023 264.06C195.364 263.423 171.916 255.437 162.827 250.961C129.247 234.421 120.737 200.361 115.013 166.171ZM304.294 239.251C306.503 242.349 307.335 245.737 308.256 249.365C352.383 251.107 380.362 280.264 394.227 319.555C394.948 321.599 397.328 330.162 398.142 331.306C397.986 325.691 398.032 320.259 397.322 314.662C393.053 281.037 369.608 236.587 331.817 233.078C323.743 232.328 310.674 233.91 304.294 239.251Z"/>
	<path fill="#14AE5C" transform="scale(2 2)" d="M315.936 224.583C345.377 212.186 381.587 213.304 410.834 225.204C413.21 226.171 422.421 230.819 423.908 230.938C426.73 232.953 429.188 236.52 431.364 239.251C404.251 230.446 386.592 223.838 356.28 223.989L326.133 224.161C322.847 224.194 319.148 225.228 315.936 224.583Z"/>
	<path fill="#14AE5C" transform="scale(2 2)" d="M234.386 85.2747C234.84 84.41 235.528 83.6974 236.28 83.0783C234.191 91.6729 231.554 100.128 229.483 108.714C223.322 134.245 222.586 157.094 223.913 183.011C224.09 186.468 225.234 192.237 224.803 195.268C223.078 192.482 221.798 189.424 220.719 186.338C211.039 158.664 211.743 134.103 222.922 107.381C226.132 99.707 231.599 91.8435 234.386 85.2747Z"/>
	<path fill="#14AE5C" transform="scale(2 2)" d="M351.558 116.047C352.443 115.793 353.456 115.976 354.364 116.047C350.163 118.702 345.637 120.603 341.263 122.931C313.232 137.847 288.795 161.064 274.144 189.316C271.645 194.133 269.018 198.743 268.194 204.173C255.278 201.025 253.661 203.529 242.991 204.173C251.948 193.406 252.048 191.676 256.002 177.754C266.992 139.063 302.455 119.389 340.519 116.163C344.164 115.854 347.701 116.137 351.324 116.054L351.558 116.047Z"/>
	<path fill="#14AE5C" transform="scale(2 2)" d="M115.844 160.552C135.826 196.796 164.059 230.723 205.023 243.534C203.766 250.503 203.147 257.141 205.023 264.06C195.364 263.423 171.916 255.437 162.827 250.961C129.247 234.421 120.737 200.361 115.013 166.171C115.106 164.302 115.351 162.359 115.844 160.552Z"/>
	<path fill="#14AE5C" transform="scale(2 2)" d="M244.432 307.232C249.812 308.942 254.849 308.993 260.426 308.738C257.509 361.028 227.382 386.413 178.612 396.048C175.182 396.726 171.554 396.652 168.183 397.421C164.995 397.571 160.984 396.282 157.878 395.52C191.632 377.756 218.596 357.492 237.505 322.858C240.268 317.797 241.955 312.394 244.432 307.232Z"/>
	<path fill="#14AE5C" transform="scale(2 2)" d="M308.256 249.365C352.383 251.107 380.362 280.264 394.227 319.555C394.948 321.599 397.328 330.162 398.142 331.306C398.681 336.491 397.814 346.167 396.589 351.233C394.492 348.068 392.838 344.586 391.011 341.258C372.742 307.985 342.041 280.688 306.138 268.093C308.185 261.771 308.51 255.95 308.256 249.365Z"/>
	<path fill="#14AE5C" transform="scale(2 2)" d="M255.408 219.839C267.64 219.905 282.968 236.096 288.517 245.098C292.707 251.895 292.066 261.453 287.382 267.824C281.849 275.35 268.285 290.165 258.13 291.75C246.189 292.156 242.23 286.066 234.819 278.255C229.136 272.265 221.875 266.819 221.162 257.942C220.184 245.77 227.494 239.947 235.167 232.207C241.905 225.412 245.316 220.581 255.408 219.839ZM254.198 227.428C248.304 229.339 245.026 233.556 240.793 237.793C233.031 245.561 222.857 252.69 232.145 264.436C237.841 271.639 248.194 284.166 258.13 283.474C264.56 282.204 268.32 276.658 272.618 272.235C278.143 266.548 288.276 258.023 281.69 248.914C276.247 241.388 264.366 228.09 254.198 227.428Z"/>
</svg>
